<svg width="194" height="32" viewBox="0 0 194 32" fill="none" xmlns="http://www.w3.org/2000/svg">
<g clip-path="url(#clip0_1924_572)">
<path d="M106.667 0.164795H126.558C127.725 0.164795 128.809 0.379656 129.81 0.806991C130.81 1.23433 131.552 1.76193 132.042 2.38742C132.529 3.0129 132.961 3.89861 133.333 5.04215C133.706 6.18568 133.894 7.15495 133.894 7.94993V16.1529C133.894 17.6354 133.732 18.9747 133.407 20.1732C133.083 21.3716 132.682 22.2764 132.207 22.8828C131.731 23.4916 131.111 23.9977 130.347 24.4011C129.583 24.8046 128.356 25.0075 126.67 25.0075H106.669V0.164795H106.667ZM113.423 5.83713V19.3686H123.505C124.323 19.3686 124.961 19.1466 125.419 18.7002C125.878 18.2537 126.171 17.867 126.305 17.5351C126.436 17.2033 126.503 16.3629 126.503 15.0141V11.3113C126.503 10.0938 126.472 9.17464 126.412 8.54677C126.353 7.92129 126.102 7.31251 125.663 6.72284C125.224 6.13316 124.503 5.83713 123.505 5.83713H113.423Z" fill="#02AF7F"/>
<path d="M157.923 12.9729V18.1391C157.923 18.8267 157.875 19.4975 157.777 20.154C157.682 20.8105 157.531 21.4551 157.326 22.0878C157.121 22.7204 156.846 23.2194 156.505 23.587C156.161 23.9547 155.724 24.2412 155.194 24.4441C154.664 24.6494 154.07 24.8141 153.416 24.9407C152.759 25.0672 152.045 25.1293 151.274 25.1293H144.518C143.854 25.1293 143.236 25.072 142.658 24.9574C142.081 24.8428 141.515 24.6709 140.961 24.4417C140.407 24.2125 139.98 23.9332 139.679 23.6014C139.378 23.2695 139.113 22.8613 138.884 22.3719C138.655 21.8849 138.466 21.2737 138.316 20.5384C138.165 19.8031 138.089 19.02 138.089 18.1892V12.9681C138.089 12.2328 138.158 11.5429 138.297 10.8983C138.435 10.2537 138.621 9.73564 138.858 9.34412C139.092 8.95259 139.388 8.60165 139.743 8.28652C140.099 7.97378 140.541 7.71356 141.071 7.51063C141.601 7.30532 142.19 7.14776 142.842 7.03078C143.492 6.91618 144.088 6.85889 144.63 6.85889H151.315C152.038 6.85889 152.735 6.93051 153.411 7.07614C154.084 7.22176 154.679 7.40559 155.189 7.62761C155.7 7.84964 156.123 8.13612 156.455 8.48467C156.787 8.83322 157.044 9.20087 157.231 9.58762C157.417 9.97438 157.579 10.4781 157.718 11.106C157.856 11.7315 157.925 12.3522 157.925 12.9657L157.923 12.9729ZM148.526 11.8532H147.569C147.075 11.8532 146.652 11.8986 146.304 11.9893C145.955 12.08 145.635 12.2328 145.346 12.4501C145.058 12.6673 144.826 12.9705 144.652 13.362C144.477 13.7535 144.389 14.1833 144.389 14.6536V17.3823C144.389 17.8407 144.458 18.28 144.597 18.7001C144.735 19.1227 144.931 19.445 145.184 19.667C145.437 19.889 145.764 20.0561 146.168 20.1636C146.571 20.271 147.044 20.3259 147.586 20.3259H148.488C149.018 20.3259 149.467 20.2328 149.835 20.0466C150.202 19.8604 150.479 19.6527 150.665 19.4235C150.852 19.1943 150.997 18.8959 151.1 18.5282C151.203 18.1606 151.253 17.7906 151.253 17.4181V14.6536C151.253 14.1355 151.16 13.6867 150.973 13.3071C150.787 12.9275 150.572 12.6363 150.331 12.431C150.09 12.2256 149.832 12.0776 149.555 11.9893C149.278 11.8986 148.935 11.8532 148.526 11.8532Z" fill="#02AF7F"/>
<path d="M163.509 9.2605H169.712V28.0083L165.238 32H160.709V28.0083H163.509V9.2605Z" fill="#02AF7F"/>
<path d="M193.442 12.9729V18.1391C193.442 18.8267 193.394 19.4975 193.296 20.154C193.201 20.8105 193.05 21.4551 192.845 22.0878C192.64 22.7204 192.365 23.2194 192.024 23.587C191.68 23.9547 191.243 24.2412 190.713 24.4441C190.183 24.6494 189.589 24.8141 188.935 24.9407C188.278 25.0672 187.564 25.1293 186.793 25.1293H180.037C179.373 25.1293 178.755 25.072 178.177 24.9574C177.6 24.8428 177.034 24.6709 176.48 24.4417C175.926 24.2125 175.499 23.9332 175.198 23.6014C174.897 23.2695 174.632 22.8613 174.403 22.3719C174.174 21.8849 173.985 21.2737 173.835 20.5384C173.684 19.8031 173.608 19.02 173.608 18.1892V12.9681C173.608 12.2328 173.677 11.5429 173.816 10.8983C173.954 10.2537 174.14 9.73564 174.377 9.34412C174.611 8.95259 174.907 8.60165 175.262 8.28652C175.618 7.97378 176.06 7.71356 176.59 7.51063C177.12 7.30532 177.709 7.14776 178.361 7.03078C179.01 6.91618 179.607 6.85889 180.149 6.85889H186.834C187.557 6.85889 188.254 6.93051 188.93 7.07614C189.603 7.22176 190.198 7.40559 190.708 7.62761C191.219 7.84964 191.642 8.13612 191.974 8.48467C192.306 8.83322 192.563 9.20087 192.75 9.58762C192.936 9.97438 193.098 10.4781 193.237 11.106C193.375 11.7315 193.444 12.3522 193.444 12.9657L193.442 12.9729ZM184.048 11.8532H183.09C182.596 11.8532 182.174 11.8986 181.825 11.9893C181.477 12.08 181.157 12.2328 180.868 12.4501C180.579 12.6673 180.347 12.9705 180.173 13.362C179.999 13.7535 179.91 14.1833 179.91 14.6536V17.3823C179.91 17.8407 179.98 18.28 180.118 18.7001C180.257 19.1227 180.452 19.445 180.705 19.667C180.959 19.889 181.286 20.0561 181.689 20.1636C182.093 20.271 182.565 20.3259 183.107 20.3259H184.01C184.54 20.3259 184.988 20.2328 185.356 20.0466C185.724 19.8604 186.001 19.6527 186.187 19.4235C186.373 19.1943 186.519 18.8959 186.621 18.5282C186.724 18.1606 186.774 17.7906 186.774 17.4181V14.6536C186.774 14.1355 186.681 13.6867 186.495 13.3071C186.309 12.9275 186.094 12.6363 185.853 12.431C185.611 12.2256 185.354 12.0776 185.077 11.9893C184.8 11.8986 184.456 11.8532 184.048 11.8532Z" fill="#02AF7F"/>
<path d="M75.5906 25.0766H70.8159V15.9211C70.8159 13.5051 68.8511 11.5403 66.4351 11.5403H64.0621L65.7165 6.76562H66.4351C71.4819 6.76562 75.5906 10.8719 75.5906 15.9211V25.0766Z" fill="black"/>
<path d="M46.0543 6.76801H43.4163L41.6735 11.5427H46.0543C48.4703 11.5427 50.4351 13.5075 50.4351 15.9235C50.4351 18.3395 48.4703 20.3043 46.0543 20.3043H41.6735V6.92319H36.8988V31.9999H41.6735V25.0766H46.0543C51.1012 25.0766 55.2098 20.9703 55.2098 15.9211C55.2098 10.8719 51.1036 6.76562 46.0543 6.76562V6.76801Z" fill="black"/>
<path d="M27.5213 1.27246V25.0767H32.296V0H30.5939L27.5213 1.27246Z" fill="black"/>
<path d="M59.2898 1.27962V25.0767H64.0645V0H62.3766L59.2898 1.27962Z" fill="black"/>
<path d="M90.3969 6.76807H87.8806C82.8338 6.76807 78.7252 10.8743 78.7252 15.9235C78.7252 20.9728 82.8314 25.079 87.8806 25.079H90.2799L92.259 20.3043H87.8782C85.4623 20.3043 83.4975 18.3395 83.4975 15.9235C83.4975 13.5075 85.4623 11.5428 87.8782 11.5428H92.259V25.0766H97.0337V13.4789L90.3945 6.76807H90.3969Z" fill="black"/>
<path d="M14.3885 0H12.9633L8.90958 1.67831L0 25.0767H4.77469L6.59863 20.2853H14.7084L16.0979 17.0361L19.1585 25.0767H23.9332L14.3885 0ZM7.87347 16.9382L11.9678 6.18562L16.0621 16.9382H7.87347Z" fill="black"/>
<path d="M166.58 6.76574C168.448 6.76574 169.962 5.25118 169.962 3.38287C169.962 1.51456 168.448 0 166.58 0C164.711 0 163.197 1.51456 163.197 3.38287C163.197 5.25118 164.711 6.76574 166.58 6.76574Z" fill="#02AF7F"/>
</g>
<defs>
<clipPath id="clip0_1924_572">
<rect width="193.442" height="32" fill="white"/>
</clipPath>
</defs>
</svg>
