<svg width="24" height="24" viewBox="0 0 24 24" fill="none" xmlns="http://www.w3.org/2000/svg">
<g clip-path="url(#clip0_28697_15077)">
<path d="M12.0085 14.6292V4.08008" stroke="black" stroke-width="2" stroke-linecap="round" stroke-linejoin="round"/>
<path d="M16.2158 9.60938H18.8901" stroke="black" stroke-width="2" stroke-linecap="round" stroke-linejoin="round"/>
<path d="M16.2158 14.3906H18.8901" stroke="black" stroke-width="2" stroke-linecap="round" stroke-linejoin="round"/>
<path d="M5.12708 9.60938H7.78428" stroke="black" stroke-width="2" stroke-linecap="round" stroke-linejoin="round"/>
<path d="M5.12708 14.3906H7.78428" stroke="black" stroke-width="2" stroke-linecap="round" stroke-linejoin="round"/>
<path d="M21.956 2.27637H16.4712C15.2959 2.27637 14.1547 2.61666 13.1497 3.2462L11.9744 3.99485L10.7991 3.2462C9.81118 2.61666 8.65291 2.27637 7.47761 2.27637H2.04397C1.61813 2.27637 1.27747 2.61666 1.27747 3.04203V19.274C1.27747 19.6994 1.61813 20.0397 2.04397 20.0397H7.52871C8.70401 20.0397 9.84524 20.38 10.8502 21.0095L11.9063 21.6901C11.9063 21.6901 11.9744 21.7242 12.0085 21.7242C12.0425 21.7242 12.0766 21.7242 12.1107 21.6901L13.1667 21.0095C14.1547 20.38 15.313 20.0397 16.4883 20.0397H21.973C22.3988 20.0397 22.7395 19.6994 22.7395 19.274V3.04203C22.7395 2.61666 22.3988 2.27637 21.973 2.27637H21.956Z" stroke="black" stroke-width="2" stroke-linecap="round" stroke-linejoin="round"/>
</g>
<defs>
<clipPath id="clip0_28697_15077">
<rect width="24" height="22" fill="white" transform="translate(0 1)"/>
</clipPath>
</defs>
</svg>
