<svg width="20" height="20" viewBox="0 0 20 20" fill="none" xmlns="http://www.w3.org/2000/svg">
<g clip-path="url(#clip0_1749_8037)">
<path d="M10 0.0411682C4.475 0.0411682 1.45953e-06 4.51617 1.45953e-06 10.0412C-0.00113276 12.1404 0.658815 14.1868 1.88622 15.8898C3.11362 17.5929 4.84615 18.8662 6.838 19.5292C7.338 19.6162 7.525 19.3162 7.525 19.0532C7.525 18.8162 7.512 18.0292 7.512 17.1912C5 17.6542 4.35 16.5792 4.15 16.0162C4.037 15.7282 3.55 14.8412 3.125 14.6032C2.775 14.4162 2.275 13.9532 3.112 13.9412C3.9 13.9282 4.462 14.6662 4.65 14.9662C5.55 16.4782 6.988 16.0532 7.562 15.7912C7.65 15.1412 7.912 14.7042 8.2 14.4542C5.975 14.2042 3.65 13.3412 3.65 9.51617C3.65 8.42817 4.037 7.52917 4.675 6.82817C4.575 6.57817 4.225 5.55317 4.775 4.17817C4.775 4.17817 5.612 3.91617 7.525 5.20417C8.33906 4.97823 9.18017 4.86451 10.025 4.86617C10.875 4.86617 11.725 4.97817 12.525 5.20317C14.437 3.90317 15.275 4.17917 15.275 4.17917C15.825 5.55417 15.475 6.57917 15.375 6.82917C16.012 7.52917 16.4 8.41617 16.4 9.51617C16.4 13.3542 14.063 14.2042 11.838 14.4542C12.2 14.7662 12.513 15.3662 12.513 16.3042C12.513 17.6412 12.5 18.7162 12.5 19.0542C12.5 19.3162 12.688 19.6282 13.188 19.5282C15.173 18.858 16.8979 17.5822 18.1199 15.8803C19.3419 14.1785 19.9994 12.1363 20 10.0412C20 4.51617 15.525 0.0411682 10 0.0411682Z" fill="#94A3B8"/>
</g>
<defs>
<clipPath id="clip0_1749_8037">
<rect width="20" height="20" fill="#94A3B8"/>
</clipPath>
</defs>
</svg>
