<svg
  viewBox="0 0 1024 1024"
  xmlns="http://www.w3.org/2000/svg"
  aria-hidden="true"
>
  <path
    fill="currentColor"
    d="M512 85.333c235.648 0 426.667 191.019 426.667 426.667S747.648 938.667 512 938.667a424.789 424.789 0 0 1-200.875-50.134L85.333 938.667l50.176-225.707A424.789 424.789 0 0 1 85.333 512C85.333 276.352 276.352 85.333 512 85.333Zm0 85.334C323.477 170.667 170.667 323.477 170.667 512c0 56.96 13.909 111.701 40.106 160.683l14.934 27.904-27.99 125.696 125.782-27.904 27.861 14.89A339.413 339.413 0 0 0 512 853.333 341.333 341.333 0 1 0 512 170.667Zm42.667 128V512h170.666v85.333h-256V298.667h85.334Z"
  />
</svg>