<svg width="20" height="20" viewBox="0 0 20 20" fill="none" xmlns="http://www.w3.org/2000/svg">
<path d="M9.20505 0C14.2879 0 18.4093 4.08798 18.4093 9.13089C18.4093 11.5832 17.4343 13.8088 15.8495 15.4495L18.9017 18.4776C19.2525 18.8251 19.2525 19.3892 18.9017 19.7375C18.7326 19.9046 18.5045 19.9983 18.2668 19.9983C18.029 19.9983 17.8009 19.9046 17.6318 19.7375L14.4821 16.6127C12.9334 17.6897 11.0914 18.2653 9.20505 18.2618C4.12215 18.2618 0 14.1738 0 9.13089C0 4.08798 4.12131 0 9.20505 0ZM9.20505 1.78151C5.11373 1.78151 1.79568 5.0729 1.79568 9.13089C1.79568 13.1889 5.1129 16.4803 9.20505 16.4803C13.2964 16.4803 16.6127 13.1889 16.6127 9.13089C16.6127 5.0729 13.2964 1.78151 9.20505 1.78151Z" fill="#070F15"/>
</svg>
